<svg width="26" height="26" viewBox="0 0 26 26" fill="none" xmlns="http://www.w3.org/2000/svg">
<path fill-rule="evenodd" clip-rule="evenodd" d="M6 2C3.79086 2 2 3.79086 2 6V20C2 22.2091 3.79086 24 6 24H20C22.2091 24 24 22.2091 24 20V6C24 3.79086 22.2091 2 20 2H6ZM6 0C2.68629 0 0 2.68629 0 6V20C0 23.3137 2.68629 26 6 26H20C23.3137 26 26 23.3137 26 20V6C26 2.68629 23.3137 0 20 0H6ZM8.1103 20H6V9.8895H8.1103V20ZM8.1103 5V7.46658H6V5H8.1103ZM12.9584 20H10.8266V12.6835C10.8266 11.7231 10.8266 10.7408 10.8051 9.8895H12.8723C12.9154 10.2169 12.9584 11.3083 12.9584 11.6357C13.3676 10.719 14.272 9.62756 16.3393 9.62756C18.428 9.62756 20 10.9372 20 13.8622V20H17.8897V14.1241C17.8897 12.5307 17.2867 11.4393 15.6717 11.4393C13.7552 11.4393 12.9584 12.8799 12.9584 15.0628V20Z" fill="white"/>
</svg>
