<svg width="20" height="20" viewBox="0 0 20 20" fill="none" xmlns="http://www.w3.org/2000/svg">
<rect width="20" height="20" rx="4" fill="#101111"/>
<path fill-rule="evenodd" clip-rule="evenodd" d="M6.50735 15H5V8.25966H6.50735V15ZM6.50735 5V6.64439H5V5H6.50735ZM9.97028 15H8.44756V10.1223C8.44756 9.48206 8.44756 8.82719 8.43221 8.25966H9.90878C9.93956 8.47793 9.97028 9.20553 9.97028 9.42379C10.2626 8.81266 10.9086 8.08503 12.3852 8.08503C13.8771 8.08503 15 8.95813 15 10.9081V15H13.4927V11.0827C13.4927 10.0205 13.0619 9.29286 11.9083 9.29286C10.5394 9.29286 9.97028 10.2533 9.97028 11.7085V15Z" fill="white"/>
</svg>
