<svg width="15" height="12" viewBox="0 0 15 12" fill="none" xmlns="http://www.w3.org/2000/svg">
<path d="M1.77693 2.44815C1.79553 2.26368 1.72421 2.07921 1.58776 1.95414L0.189167 0.253257V0H4.5369L7.89849 7.432L10.8538 0H15V0.253257L13.803 1.41011C13.7006 1.48828 13.6479 1.61959 13.6696 1.74779V10.2522C13.6479 10.3804 13.7006 10.5117 13.803 10.5899L14.9721 11.7467V12H9.08931V11.7467L10.3018 10.5618C10.4197 10.4429 10.4197 10.4054 10.4197 10.2241V3.35175L7.04879 11.9781H6.59293L2.67314 3.35175V9.13288C2.63903 9.37676 2.71966 9.62064 2.89022 9.79573L4.46558 11.7217V11.975H0V11.7249L1.57536 9.79573C1.74282 9.62064 1.82034 9.37363 1.77693 9.13288V2.44815Z" fill="white"/>
</svg>
