<?xml version="1.0" encoding="UTF-8" standalone="no"?>
<svg width="100px" height="100px" viewBox="0 0 100 100" version="1.1" xmlns="http://www.w3.org/2000/svg" xmlns:xlink="http://www.w3.org/1999/xlink" xmlns:sketch="http://www.bohemiancoding.com/sketch/ns">
    <!-- Generator: Sketch 3.3.3 (12072) - http://www.bohemiancoding.com/sketch -->
    <title>Rectangle 1</title>
    <desc>Created with Sketch.</desc>
    <defs></defs>
    <g id="Page-1" stroke="none" stroke-width="1" fill="none" fill-rule="evenodd" sketch:type="MSPage">
        <path d="M40,30.0088711 C40,24.4811242 35.5240618,20 30,20 L30,20 C24.4771525,20 20,24.4759382 20,30 L20,30 C20,35.5228475 15.5240618,40 10,40 L10,40 C4.4771525,40 0,35.5323558 0,30.0099418 L0,21.9900582 C0,16.4727014 0,7.53164291 0,2.0085302 L0,9.9914698 C0,4.4733334 4.47473288,0 10.0000638,0 L89.9999362,0 C95.5228189,0 100,4.47352529 100,10 L100,0 C100,5.5228475 100,14.4750951 100,19.9999892 L100,30.0000108 C100,35.5228523 95.5240618,40 90,40 L90,40 C84.4771525,40 80,35.5240618 80,30 L80,30 C80,24.4771525 75.5240618,20 70,20 L70,20 C64.4771525,20 60,24.485214 60,30.0088711 L60,69.9911289 C60,75.5188758 64.4759382,80 70,80 L70,80 C75.5228475,80 80,84.4759382 80,90 L80,90 C80,95.5228475 75.514786,100 69.9911289,100 L30.0088711,100 C24.4811242,100 20,95.5240618 20,90 L20,90 C20,84.4771525 24.4759382,80 30,80 L30,80 C35.5228475,80 40,75.514786 40,69.9911289 L40,30.0088711 Z" id="Rectangle-1" fill="#000000" sketch:type="MSShapeGroup"></path>
    </g>
</svg>